    <svg
      version="1.0"
      xmlns="http://www.w3.org/2000/svg"
      xmlns:xlink="http://www.w3.org/1999/xlink"
      width="100%"
      height="100%"
      viewBox="0 0 340.000000 250.000000"
      preserveAspectRatio="xMidYMid meet"
      color-interpolation-filters="sRGB"
      style="margin: auto"
    >
      <rect
        x="0"
        y="0"
        width="100%"
        height="100%"
        fill="#ffffff"
        fill-opacity="0"
        class="background"
      ></rect>
      <rect
        x="0"
        y="0"
        width="100%"
        height="100%"
        fill="url(#watermark)"
        fill-opacity="1"
        class="watermarklayer"
      ></rect>
      <g
        fill="#fff"
        class="icon-text-wrapper icon-svg-group iconsvg"
        transform="translate(69.47360229492188,56.040870666503906)"
      >
        <g class="iconsvg-imagesvg" transform="translate(59.32639694213867,0)">
          <g>
            <rect
              fill="#fff"
              fill-opacity="0"
              stroke-width="2"
              x="0"
              y="0"
              width="74.4"
              height="137.91825006951527"
              class="image-rect"
            ></rect>
            <svg
              filter="url(#colors8587520035)"
              x="0"
              y="0"
              width="74.4"
              height="137.91825006951527"
              filtersec="colorsf2112003317"
              class="image-svg-svg primary"
              style="overflow: visible"
            >
              <svg
                xmlns="http://www.w3.org/2000/svg"
                xmlns:xlink="http://www.w3.org/1999/xlink"
                version="1.1"
                x="0px"
                y="0px"
                viewBox="23.643001556396484 3.0929994583129883 50.65800094604492 93.90699768066406"
                enable-background="new 0 0 100 100"
                xml:space="preserve"
              >
                <g>
                  <circle cx="39.173" cy="63.169" r="4.235"></circle>
                  <circle cx="59.91" cy="63.169" r="4.235"></circle>
                  <path
                    d="M60.623,68.521c-1.116,0-2.192,0.479-3.221,0.479H42v-0.057c-1-0.294-2.149-0.462-3.301-0.462   c-6.716,0-12.172,5.374-12.172,11.979s5.452,11.979,12.167,11.979c1.151,0,2.305-0.168,3.305-0.463V97h15v-5.113   c1,0.358,2.365,0.553,3.638,0.553c6.716,0,12.172-5.354,12.172-11.959C72.81,73.875,67.34,68.521,60.623,68.521z M52.111,72   c-1,1-1.824,2.097-2.441,3.348C49.052,74.097,48.228,73,47.229,72H52.111z M29.523,80.46c0-4.958,4.124-8.991,9.193-8.991   c5.069,0,9.194,4.033,9.194,8.991s-4.125,8.993-9.194,8.993C33.647,89.453,29.523,85.418,29.523,80.46z M45,90.69   c1-0.675,2-1.517,3-2.503V94h-3V90.69z M54,94h-3v-6.229c1,1.062,2,1.984,3,2.72V94z M60.623,89.453   c-5.069,0-9.193-3.988-9.193-8.947c0-3.994,2.678-7.506,6.369-8.506H58v-0.146c1-0.249,1.716-0.386,2.64-0.386   c5.069,0,9.184,4.033,9.184,8.991S65.692,89.453,60.623,89.453z"
                  ></path>
                  <path
                    d="M54.475,50.063l1.115,0.167c2.09,0.313,4.063,1.046,5.861,2.183l1.606,1.015l-0.035,0.071l0.809,0.77   c2.015,1.916,3.467,4.335,4.201,6.998l1.315,4.773l1.543-4.705c2.264-6.9,3.411-14.309,3.411-22.021   c0-12.768-3.207-24.915-9.029-34.202l-1.267-2.019L62.74,5.111c-5.822,9.287-9.029,21.434-9.029,34.202   c0,3.233,0.209,6.473,0.619,9.631L54.475,50.063z M64,51.524l-0.361-0.92c-1.135-2.896-1.736-6.202-1.736-9.556   c0-3.789,0.737-7.417,2.104-10.478c1.367,3.061,2.104,6.689,2.104,10.478C66.11,44.838,65.383,48.435,64,51.524z M64.006,8.842   c4.726,8.512,7.308,19.223,7.308,30.471c0,5.914-0.701,11.637-2.089,17.066c-0.71-1.257-1.567-2.432-2.562-3.495   c1.595-3.504,2.434-7.571,2.434-11.837c0-5.382-1.357-10.514-3.824-14.448l-1.267-2.019L62.74,26.6   c-2.466,3.935-3.824,9.066-3.824,14.448c0,2.458,0.293,4.896,0.855,7.202c-0.848-0.322-1.719-0.58-2.611-0.77   c-0.307-2.688-0.461-5.429-0.461-8.167C56.699,28.065,59.281,17.354,64.006,8.842z"
                  ></path>
                  <path
                    d="M29.16,67.448l1.105-5.269c0.602-2.862,2.012-5.482,4.08-7.576l0.774-0.785l-0.017-0.031l1.258-0.896   c1.816-1.297,3.845-2.16,6.031-2.567l1.066-0.198L43.6,49.05c0.42-3.189,0.633-6.465,0.633-9.736   c0-12.768-3.207-24.915-9.03-34.202l-1.266-2.019l-1.265,2.019c-5.823,9.287-9.029,21.434-9.029,34.202   c0,8.016,1.297,15.987,3.75,23.05L29.16,67.448z M34.117,51.096l-0.174,0.414c-1.366-3.071-2.108-6.727-2.108-10.462   c0-3.789,0.736-7.417,2.103-10.478c1.367,3.061,2.104,6.689,2.104,10.478C36.041,44.624,35.375,48.099,34.117,51.096z    M33.938,8.842c4.726,8.512,7.308,19.223,7.308,30.471c0,2.787-0.161,5.577-0.479,8.307c-0.909,0.227-1.793,0.522-2.65,0.883   c0.601-2.371,0.912-4.893,0.912-7.456c0-5.382-1.359-10.514-3.825-14.448l-1.266-2.019L32.672,26.6   c-2.467,3.935-3.825,9.066-3.825,14.448c0,4.446,0.907,8.657,2.631,12.253c-1.019,1.161-1.881,2.438-2.571,3.803   c-1.496-5.62-2.277-11.688-2.277-17.79C26.63,28.066,29.212,17.353,33.938,8.842z"
                  ></path>
                </g>
              </svg>
            </svg>
            <defs>
            </defs>
          </g>
        </g>
        <g transform="translate(0,97.91825866699219)">
          <g
            data-gra="path-name"
            fill-rule=""
            stroke="#fff"
            class="tp-name iconsvg-namesvg"
            transform="translate(0,0)"
          >
            <g transform="scale(0.7799999999999998)">
              <g>
                <path
                  d="M4.61-39.32L4.61-39.32 35.29-39.32Q37.81-39.32 39.46-36.39L39.46-36.39Q39.76-35.48 39.76-34.99L39.76-34.99 39.76-33.89Q39.76-31.53 36.8-29.94L36.8-29.94Q35.84-29.56 34.99-29.56L34.99-29.56 24.81-29.56 24.81-4.58Q24.81-1.54 21.22-0.08L21.22-0.08 20.43 0 19.33 0Q16.95 0 15.33-2.93L15.33-2.93Q14.94-3.89 14.94-4.72L14.94-4.72 14.94-29.56 5.02-29.56Q1.54-29.56 0.16-33.04L0.16-33.04Q0-33.75 0-34.05L0-34.05 0-34.74Q0-37.73 3.51-39.15L3.51-39.15Q4.11-39.32 4.61-39.32ZM74.02-39.32L74.02-39.32 74.87-39.32Q77.92-39.32 79.78-34.47L79.78-34.47Q93.85-6.75 94.26-5.65L94.26-5.65 94.26-4.17Q94.26-1.67 90.97-0.16L90.97-0.16Q90.25 0 89.82 0L89.82 0 89.1 0Q86.03 0 84.14-5.02L84.14-5.02Q74.46-24.16 74.32-24.27L74.32-24.27Q63.49-2.5 62.89-1.62L62.89-1.62Q61.27 0 59.55 0L59.55 0 58.86 0Q56.36 0 54.75-3.02L54.75-3.02Q54.5-3.89 54.5-4.41L54.5-4.41 54.5-5.02Q54.5-6.11 57.3-11.35L57.3-11.35 70.51-37.45Q72.08-39.32 74.02-39.32ZM122.65-39.32L122.65-39.32 144.23-39.32Q147.25-39.32 148.68-36.06L148.68-36.06Q148.76-35.65 148.76-35.37L148.76-35.37 148.76-33.89Q148.76-31.59 145.85-29.94L145.85-29.94Q144.7-29.56 143.99-29.56L143.99-29.56 118.93-29.56 118.93-24.62 133.84-24.62Q142.92-24.62 147.36-18.89L147.36-18.89Q148.76-16.73 148.76-15.25L148.76-15.25 148.76-9.38Q148.76-5.95 144.15-2.63L144.15-2.63Q139.74 0 135.49 0L135.49 0 113.3 0Q111.06 0 109.38-2.55L109.38-2.55Q109-3.37 109-4.03L109-4.03 109-5.1Q109-8.09 112.51-9.51L112.51-9.51Q113.3-9.76 114.32-9.76L114.32-9.76 138.91-9.76 138.91-14.7 123.15-14.7Q116.57-14.7 111.82-18.81L111.82-18.81Q109-21.63 109-24.54L109-24.54 109-29.5Q109-34.33 115.64-37.78L115.64-37.78Q119.5-39.32 122.65-39.32ZM168.11-39.32L168.11-39.32 198.79-39.32Q201.31-39.32 202.96-36.39L202.96-36.39Q203.26-35.48 203.26-34.99L203.26-34.99 203.26-33.89Q203.26-31.53 200.3-29.94L200.3-29.94Q199.34-29.56 198.49-29.56L198.49-29.56 188.31-29.56 188.31-4.58Q188.31-1.54 184.72-0.08L184.72-0.08 183.93 0 182.83 0Q180.45 0 178.83-2.93L178.83-2.93Q178.44-3.89 178.44-4.72L178.44-4.72 178.44-29.56 168.52-29.56Q165.04-29.56 163.66-33.04L163.66-33.04Q163.5-33.75 163.5-34.05L163.5-34.05 163.5-34.74Q163.5-37.73 167.01-39.15L167.01-39.15Q167.61-39.32 168.11-39.32ZM222.47-39.32L222.47-39.32 223.24-39.32Q225.18-39.32 227.54-36.69L227.54-36.69Q237.8-26.57 237.96-26.54L237.96-26.54Q250.08-38.69 250.49-38.69L250.49-38.69Q251.64-39.32 252.52-39.32L252.52-39.32 253.29-39.32Q255.89-39.32 257.46-36.3L257.46-36.3Q257.76-35.51 257.76-34.9L257.76-34.9 257.76-33.97Q257.76-31.89 254.17-28.87L254.17-28.87 242.81-17.66 242.81-4.58Q242.81-1.56 239.22-0.08L239.22-0.08 238.43 0 237.33 0Q234.92 0 233.27-3.02L233.27-3.02Q232.94-3.98 232.94-4.63L232.94-4.63 232.94-17.66Q218.74-31.61 218.71-31.81L218.71-31.81Q218-33.15 218-34.05L218-34.05 218-34.74Q218-37.45 221.04-39.02L221.04-39.02Q221.84-39.32 222.47-39.32Z"
                  transform="translate(0, 39.31999969482422)"
                  stroke-width="3.9"
                  stroke-linejoin="round"
                  mask="url(#a6KGfHY0IhDOZ-6euctyp)"
                ></path>
              </g>
            </g>
          </g>
          <g
            data-gra="path-slogan"
            fill-rule=""
            class="tp-slogan iconsvg-slogansvg"
            fill="#fff"
            transform="translate(100.34424771368504,34.71959953308105)"
          >
            <g transform="scale(1, 1)">
              <g transform="scale(0.01)">
                <path
                  d="M1.08 0L1.08-7.87L5.62-7.87L5.62-7.03L2.08-7.03L2.08-4.37L5.08-4.37L5.08-3.53L2.08-3.53L2.08 0L1.08 0ZM12.79 0.14L12.79 0.14Q12.05 0.14 11.43-0.14Q10.81-0.43 10.37-0.97Q9.92-1.50 9.68-2.26Q9.43-3.02 9.43-3.97L9.43-3.97Q9.43-4.92 9.68-5.67Q9.92-6.42 10.37-6.94Q10.81-7.46 11.43-7.74Q12.05-8.02 12.79-8.02L12.79-8.02Q13.54-8.02 14.15-7.73Q14.77-7.45 15.22-6.93Q15.67-6.41 15.92-5.66Q16.16-4.91 16.16-3.97L16.16-3.97Q16.16-3.02 15.92-2.26Q15.67-1.50 15.22-0.97Q14.77-0.43 14.15-0.14Q13.54 0.14 12.79 0.14ZM12.79-0.73L12.79-0.73Q13.32-0.73 13.75-0.96Q14.17-1.19 14.48-1.61Q14.78-2.04 14.95-2.63Q15.12-3.23 15.12-3.97L15.12-3.97Q15.12-4.70 14.95-5.29Q14.78-5.88 14.48-6.29Q14.17-6.70 13.75-6.92Q13.32-7.14 12.79-7.14L12.79-7.14Q12.26-7.14 11.84-6.92Q11.41-6.70 11.11-6.29Q10.80-5.88 10.63-5.29Q10.46-4.70 10.46-3.97L10.46-3.97Q10.46-3.23 10.63-2.63Q10.80-2.04 11.11-1.61Q11.41-1.19 11.84-0.96Q12.26-0.73 12.79-0.73ZM23.76 0.14L23.76 0.14Q23.02 0.14 22.40-0.14Q21.78-0.43 21.34-0.97Q20.89-1.50 20.65-2.26Q20.40-3.02 20.40-3.97L20.40-3.97Q20.40-4.92 20.65-5.67Q20.89-6.42 21.34-6.94Q21.78-7.46 22.40-7.74Q23.02-8.02 23.76-8.02L23.76-8.02Q24.50-8.02 25.12-7.73Q25.74-7.45 26.19-6.93Q26.64-6.41 26.89-5.66Q27.13-4.91 27.13-3.97L27.13-3.97Q27.13-3.02 26.89-2.26Q26.64-1.50 26.19-0.97Q25.74-0.43 25.12-0.14Q24.50 0.14 23.76 0.14ZM23.76-0.73L23.76-0.73Q24.29-0.73 24.71-0.96Q25.14-1.19 25.45-1.61Q25.75-2.04 25.92-2.63Q26.09-3.23 26.09-3.97L26.09-3.97Q26.09-4.70 25.92-5.29Q25.75-5.88 25.45-6.29Q25.14-6.70 24.71-6.92Q24.29-7.14 23.76-7.14L23.76-7.14Q23.23-7.14 22.81-6.92Q22.38-6.70 22.07-6.29Q21.77-5.88 21.60-5.29Q21.43-4.70 21.43-3.97L21.43-3.97Q21.43-3.23 21.60-2.63Q21.77-2.04 22.07-1.61Q22.38-1.19 22.81-0.96Q23.23-0.73 23.76-0.73ZM31.82 0L31.82-7.87L33.79-7.87Q35.62-7.87 36.56-6.86Q37.51-5.86 37.51-3.97L37.51-3.97Q37.51-3.04 37.27-2.30Q37.03-1.56 36.56-1.05Q36.10-0.54 35.41-0.27Q34.73 0 33.84 0L33.84 0L31.82 0ZM32.82-0.82L33.72-0.82Q35.10-0.82 35.79-1.64Q36.48-2.47 36.48-3.97L36.48-3.97Q36.48-5.47 35.79-6.26Q35.10-7.06 33.72-7.06L33.72-7.06L32.82-7.06L32.82-0.82Z"
                  transform="translate(-1.08, 8.016)"
                ></path>
              </g>
            </g>
          </g>
        </g>
      </g>
      <mask data-mask="name-path" id="a6KGfHY0IhDOZ-6euctyp">
        <path
          d="M4.61-39.32L4.61-39.32 35.29-39.32Q37.81-39.32 39.46-36.39L39.46-36.39Q39.76-35.48 39.76-34.99L39.76-34.99 39.76-33.89Q39.76-31.53 36.8-29.94L36.8-29.94Q35.84-29.56 34.99-29.56L34.99-29.56 24.81-29.56 24.81-4.58Q24.81-1.54 21.22-0.08L21.22-0.08 20.43 0 19.33 0Q16.95 0 15.33-2.93L15.33-2.93Q14.94-3.89 14.94-4.72L14.94-4.72 14.94-29.56 5.02-29.56Q1.54-29.56 0.16-33.04L0.16-33.04Q0-33.75 0-34.05L0-34.05 0-34.74Q0-37.73 3.51-39.15L3.51-39.15Q4.11-39.32 4.61-39.32ZM74.02-39.32L74.02-39.32 74.87-39.32Q77.92-39.32 79.78-34.47L79.78-34.47Q93.85-6.75 94.26-5.65L94.26-5.65 94.26-4.17Q94.26-1.67 90.97-0.16L90.97-0.16Q90.25 0 89.82 0L89.82 0 89.1 0Q86.03 0 84.14-5.02L84.14-5.02Q74.46-24.16 74.32-24.27L74.32-24.27Q63.49-2.5 62.89-1.62L62.89-1.62Q61.27 0 59.55 0L59.55 0 58.86 0Q56.36 0 54.75-3.02L54.75-3.02Q54.5-3.89 54.5-4.41L54.5-4.41 54.5-5.02Q54.5-6.11 57.3-11.35L57.3-11.35 70.51-37.45Q72.08-39.32 74.02-39.32ZM122.65-39.32L122.65-39.32 144.23-39.32Q147.25-39.32 148.68-36.06L148.68-36.06Q148.76-35.65 148.76-35.37L148.76-35.37 148.76-33.89Q148.76-31.59 145.85-29.94L145.85-29.94Q144.7-29.56 143.99-29.56L143.99-29.56 118.93-29.56 118.93-24.62 133.84-24.62Q142.92-24.62 147.36-18.89L147.36-18.89Q148.76-16.73 148.76-15.25L148.76-15.25 148.76-9.38Q148.76-5.95 144.15-2.63L144.15-2.63Q139.74 0 135.49 0L135.49 0 113.3 0Q111.06 0 109.38-2.55L109.38-2.55Q109-3.37 109-4.03L109-4.03 109-5.1Q109-8.09 112.51-9.51L112.51-9.51Q113.3-9.76 114.32-9.76L114.32-9.76 138.91-9.76 138.91-14.7 123.15-14.7Q116.57-14.7 111.82-18.81L111.82-18.81Q109-21.63 109-24.54L109-24.54 109-29.5Q109-34.33 115.64-37.78L115.64-37.78Q119.5-39.32 122.65-39.32ZM168.11-39.32L168.11-39.32 198.79-39.32Q201.31-39.32 202.96-36.39L202.96-36.39Q203.26-35.48 203.26-34.99L203.26-34.99 203.26-33.89Q203.26-31.53 200.3-29.94L200.3-29.94Q199.34-29.56 198.49-29.56L198.49-29.56 188.31-29.56 188.31-4.58Q188.31-1.54 184.72-0.08L184.72-0.08 183.93 0 182.83 0Q180.45 0 178.83-2.93L178.83-2.93Q178.44-3.89 178.44-4.72L178.44-4.72 178.44-29.56 168.52-29.56Q165.04-29.56 163.66-33.04L163.66-33.04Q163.5-33.75 163.5-34.05L163.5-34.05 163.5-34.74Q163.5-37.73 167.01-39.15L167.01-39.15Q167.61-39.32 168.11-39.32ZM222.47-39.32L222.47-39.32 223.24-39.32Q225.18-39.32 227.54-36.69L227.54-36.69Q237.8-26.57 237.96-26.54L237.96-26.54Q250.08-38.69 250.49-38.69L250.49-38.69Q251.64-39.32 252.52-39.32L252.52-39.32 253.29-39.32Q255.89-39.32 257.46-36.3L257.46-36.3Q257.76-35.51 257.76-34.9L257.76-34.9 257.76-33.97Q257.76-31.89 254.17-28.87L254.17-28.87 242.81-17.66 242.81-4.58Q242.81-1.56 239.22-0.08L239.22-0.08 238.43 0 237.33 0Q234.92 0 233.27-3.02L233.27-3.02Q232.94-3.98 232.94-4.63L232.94-4.63 232.94-17.66Q218.74-31.61 218.71-31.81L218.71-31.81Q218-33.15 218-34.05L218-34.05 218-34.74Q218-37.45 221.04-39.02L221.04-39.02Q221.84-39.32 222.47-39.32Z"
          stroke-width="3.9"
          stroke-linejoin="round"
          stroke="#000"
          fill="#fff"
        ></path>
      </mask>
      <defs v-gra="od"></defs>
    </svg>